#!OML:ASF E:/inclinewalkrobotboard/Project1/Captureday1/Session1/subject1.ASF
:FULLY-SPECIFIED
:DEGREES
163
root 0 0 0 -4.124761108761106 -20.631395523301133 5.344866339623695
lowerback 9.461198820431262 0.9020680060397414 -2.676160047475296
upperback 4.759124249892167 0.8515048479141756 -1.6221797232207813
thorax -0.20568597980620762 0.3925155168367121 -0.2853650126647031
lowerneck 1.7128993950182991 1.4948521628229234 -5.989601894883624
upperneck 15.187528662892174 1.6584783120765425 4.381340450958678
head 4.458843746522978 0.6249163469796488 2.6972792836267385
rclavicle -4.53610727052171E-15 8.550530776574147E-16
rhumerus 30.021077812134937 -23.355823794143202 -49.399372954360366
rradius 35.84177807996988
rwrist 29.67085758742243
rhand -23.40050187919093 9.118359820501993
rfingers 7.125020000000034
rthumb 3.1004026818709605 -20.88899380739318
lclavicle -3.1464039078808235E-16 6.267966988664796E-17
lhumerus 23.766243316282317 -28.94907352302897 65.36694296668841
lradius 124.81707694597443
lwrist 56.148037136098864
lhand -29.105173585431096 43.12747943043155
lfingers 7.149648801332033
lthumb -2.2872059305800914 52.68892632263688
rfemur -39.2652000319969 4.251709812838357 4.784711925146524
rtibia 59.614526399279654
rfoot -4.86897676070071 -10.746284334831051
rtoes -6.335461772562974
lfemur -11.500532743202985 -6.260160018712824 -12.514034039250342
ltibia 30.0023983624197
lfoot -10.449745049049842 8.950920509855315
ltoes -3.418687876068549
164
root 0 0 0 -4.437698685085605 -21.451438662305783 5.552864217930906
lowerback 9.736974170570297 0.7338550985020991 -3.253006420482293
upperback 5.025371561567386 0.5668810031437256 -1.659115566139449
thorax -0.07318197341930022 0.249416812995978 0.022637225217526785
lowerneck 2.633848193359256 0.9266085554266712 -6.64318613559315
upperneck 15.000424170925893 0.7857841477633838 5.619091227016885
head 4.307592957275976 0.19897982877266962 3.1586387532184665
rclavicle -4.426674304976689E-15 7.955376550450336E-16
rhumerus 28.784166197262067 -22.409700274802294 -50.134226435885566
rradius 35.2285499115541
rwrist 29.888772937544758
rhand -22.883584844390796 9.306122733829179
rfingers 7.125020000000034
rthumb 3.598112008482398 -20.687398459501193
lclavicle -2.988282642381042E-16 8.650355992398869E-17
lhumerus 23.653620985315012 -29.53494412975807 65.66399862698061
lradius 125.60618001125286
lwrist 56.62945170194391
lhand -29.067288475512456 43.29730761583938
lfingers 7.150041884890164
lthumb -2.2476292420221675 52.60231624011532
rfemur -39.35002158301299 4.233121619873263 4.744375749755642
rtibia 59.728869537274164
rfoot -4.813369389906053 -10.6764846629935
rtoes -6.355106286156145
lfemur -11.293417206245973 -6.042812363773984 -12.649667450405719
ltibia 30.211285838385912
lfoot -10.880395187753116 9.076087265280462
ltoes -3.522240299502411
165
root 0 0 0 -4.794063909732091 -22.436858895721837 5.749158752035321
lowerback 9.96379769197346 0.5445485001846604 -3.726515585071125
upperback 5.210286186313171 0.2674210681531597 -1.6495121841638187
thorax 8.175356636779263E-4 0.09909473548713929 0.32423433774022475
lowerneck 3.270056172164331 0.4253348404949624 -7.184099200414787
upperneck 14.715184140321755 0.02726306917644239 6.660296026713205
head 4.16014002217278 -0.1697210144249548 3.5377311010967305
rclavicle -4.380098661702108E-15 7.787321623963527E-16
rhumerus 28.633209184383134 -22.05642886127095 -50.303933057681775
rradius 35.473832804797894
rwrist 29.67408183915092
rhand -22.90453438258655 9.161988060220958
rfingers 7.125020000000034
rthumb 3.5781127604939713 -20.827587550747403
lclavicle -2.9462683118427447E-16 1.0012550448442968E-16
lhumerus 23.655070619646704 -29.860605491362264 65.79655922349374
lradius 126.12005599890634
lwrist 56.970509683005986
lhand -29.072635772456515 43.41223693766052
lfingers 7.150377938503306
lthumb -2.250402121590996 52.5425351614783
rfemur -39.58499960619214 4.140531007404845 4.652659241015964
rtibia 60.00109442780306
rfoot -4.709721145510996 -10.637290603681961
rtoes -6.366432467618559
lfemur -11.16634081038351 -5.834183367550581 -12.757063277490882
ltibia 30.460004657938672
lfoot -11.246004205351536 9.163631011131637
ltoes -3.630393913786163
166
root 0 0 0 -5.3513687688939715 -24.243908043658415 6.000412536444734
lowerback 10.295829123047161 0.24691852365002487 -4.297247351020072
upperback 5.401978110694066 -0.18530248123521942 -1.5838647801285934
thorax 0.025289492262679403 -0.12740872452569757 0.7536406500985373
lowerneck 3.8871010463417957 -0.2697393360699407 -7.8720962262381065
upperneck 13.982356553852226 -0.9986239697111641 8.022891658458157
head 3.886903092246388 -0.6673346602526438 4.0195903700048
rclavicle -4.349605280014163E-15 7.8294567249084115E-16
rhumerus 28.84334167961617 -21.80669651431153 -50.32062524358628
rradius 36.13693967843946
rwrist 29.221592692443476
rhand -23.141986139279442 8.837874885679431
rfingers 7.125020000000034
rthumb 3.350233118892598 -21.150757013620346
lclavicle -2.9830138587259463E-16 1.190312180185069E-16
lhumerus 23.612391898258533 -30.179734567401198 65.94876783998396
lradius 126.56877488291589
lwrist 57.25015476220912
lhand -29.0571451689775 43.511171009383744
lfingers 7.150636001206588
lthumb -2.23351706063894 52.48756588265734
rfemur -39.852621962287586 4.082303210512735 4.526147343334264
rtibia 60.22236717962444
rfoot -4.642380747897796 -10.620091272284478
rtoes -6.417412152527306
lfemur -11.044391145289335 -5.554325845021491 -12.889888996678826
ltibia 30.840873936046712
lfoot -11.681060814184226 9.236895011326215
ltoes -3.7727163481714117
